<svg xmlns="http://www.w3.org/2000/svg" width="1040" height="600" viewBox="0 0 1040 600">
<rect width="100%" height="100%" fill="#f8fafc"/>
<text x="520.0" y="42" text-anchor="middle" font-family="Segoe UI, Arial" font-size="24" font-weight="700" fill="#0f172a">Cloud Compiler Measured Average Latency</text>
<text x="28" y="300.0" transform="rotate(-90 28 300.0)" text-anchor="middle" font-family="Segoe UI, Arial" font-size="14" fill="#475569">Average latency (ms)</text>
<line x1="90" y1="90" x2="90" y2="500" stroke="#94a3b8" stroke-width="2"/>
<line x1="90" y1="500" x2="1000" y2="500" stroke="#94a3b8" stroke-width="2"/>
<line x1="90" y1="500.0" x2="1000" y2="500.0" stroke="#e2e8f0" stroke-width="1"/>
<text x="78" y="504.0" text-anchor="end" font-family="Segoe UI, Arial" font-size="12" fill="#64748b">0</text>
<line x1="90" y1="418.0" x2="1000" y2="418.0" stroke="#e2e8f0" stroke-width="1"/>
<text x="78" y="422.0" text-anchor="end" font-family="Segoe UI, Arial" font-size="12" fill="#64748b">945</text>
<line x1="90" y1="336.0" x2="1000" y2="336.0" stroke="#e2e8f0" stroke-width="1"/>
<text x="78" y="340.0" text-anchor="end" font-family="Segoe UI, Arial" font-size="12" fill="#64748b">1890</text>
<line x1="90" y1="254.0" x2="1000" y2="254.0" stroke="#e2e8f0" stroke-width="1"/>
<text x="78" y="258.0" text-anchor="end" font-family="Segoe UI, Arial" font-size="12" fill="#64748b">2834</text>
<line x1="90" y1="172.0" x2="1000" y2="172.0" stroke="#e2e8f0" stroke-width="1"/>
<text x="78" y="176.0" text-anchor="end" font-family="Segoe UI, Arial" font-size="12" fill="#64748b">3779</text>
<line x1="90" y1="90.0" x2="1000" y2="90.0" stroke="#e2e8f0" stroke-width="1"/>
<text x="78" y="94.0" text-anchor="end" font-family="Segoe UI, Arial" font-size="12" fill="#64748b">4724</text>
<rect x="110.0" y="490.08431691067176" width="52" height="9.915683089328255" rx="8" fill="#0f766e"/>
<rect x="170.0" y="358.75380655966603" width="52" height="141.246193440334" rx="8" fill="#2563eb"/>
<rect x="230.0" y="277.2004592638316" width="52" height="222.7995407361684" rx="8" fill="#ea580c"/>
<text x="194.0" y="526" text-anchor="middle" font-family="Segoe UI, Arial" font-size="14" fill="#0f172a">C</text>
<rect x="413.3333333333333" y="491.8461406893445" width="52" height="8.153859310655488" rx="8" fill="#0f766e"/>
<rect x="473.3333333333333" y="264.56740166660956" width="52" height="235.43259833339044" rx="8" fill="#2563eb"/>
<rect x="533.3333333333333" y="127.27272727272731" width="52" height="372.7272727272727" rx="8" fill="#ea580c"/>
<text x="497.3333333333333" y="526" text-anchor="middle" font-family="Segoe UI, Arial" font-size="14" fill="#0f172a">C++</text>
<rect x="716.6666666666666" y="473.9119896733376" width="52" height="26.088010326662406" rx="8" fill="#0f766e"/>
<rect x="776.6666666666666" y="365.85751475101404" width="52" height="134.14248524898593" rx="8" fill="#2563eb"/>
<rect x="836.6666666666666" y="280.0801298538002" width="52" height="219.9198701461998" rx="8" fill="#ea580c"/>
<text x="800.6666666666666" y="526" text-anchor="middle" font-family="Segoe UI, Arial" font-size="14" fill="#0f172a">Python</text>
<rect x="750" y="50" width="16" height="16" rx="3" fill="#0f766e"/>
<text x="774" y="63" font-family="Segoe UI, Arial" font-size="13" fill="#1e293b">Native</text>
<rect x="750" y="74" width="16" height="16" rx="3" fill="#2563eb"/>
<text x="774" y="87" font-family="Segoe UI, Arial" font-size="13" fill="#1e293b">Cloud Sync</text>
<rect x="750" y="98" width="16" height="16" rx="3" fill="#ea580c"/>
<text x="774" y="111" font-family="Segoe UI, Arial" font-size="13" fill="#1e293b">Cloud Async</text>
</svg>