<svg xmlns="http://www.w3.org/2000/svg" width="980" height="560" viewBox="0 0 980 560">
<rect width="100%" height="100%" fill="#f8fafc"/>
<text x="490.0" y="42" text-anchor="middle" font-family="Segoe UI, Arial" font-size="24" font-weight="700" fill="#0f172a">Supported Language Count</text>
<text x="490.0" y="536" text-anchor="middle" font-family="Segoe UI, Arial" font-size="14" fill="#475569">Number of documented supported languages</text>
<line x1="170" y1="90" x2="170" y2="470" stroke="#94a3b8" stroke-width="2"/>
<line x1="170" y1="470" x2="920" y2="470" stroke="#94a3b8" stroke-width="2"/>
<line x1="170.0" y1="90" x2="170.0" y2="470" stroke="#e2e8f0" stroke-width="1"/>
<text x="170.0" y="492" text-anchor="middle" font-family="Segoe UI, Arial" font-size="12" fill="#64748b">0</text>
<line x1="320.0" y1="90" x2="320.0" y2="470" stroke="#e2e8f0" stroke-width="1"/>
<text x="320.0" y="492" text-anchor="middle" font-family="Segoe UI, Arial" font-size="12" fill="#64748b">18</text>
<line x1="470.0" y1="90" x2="470.0" y2="470" stroke="#e2e8f0" stroke-width="1"/>
<text x="470.0" y="492" text-anchor="middle" font-family="Segoe UI, Arial" font-size="12" fill="#64748b">35</text>
<line x1="620.0" y1="90" x2="620.0" y2="470" stroke="#e2e8f0" stroke-width="1"/>
<text x="620.0" y="492" text-anchor="middle" font-family="Segoe UI, Arial" font-size="12" fill="#64748b">53</text>
<line x1="770.0" y1="90" x2="770.0" y2="470" stroke="#e2e8f0" stroke-width="1"/>
<text x="770.0" y="492" text-anchor="middle" font-family="Segoe UI, Arial" font-size="12" fill="#64748b">70</text>
<line x1="920.0" y1="90" x2="920.0" y2="470" stroke="#e2e8f0" stroke-width="1"/>
<text x="920.0" y="492" text-anchor="middle" font-family="Segoe UI, Arial" font-size="12" fill="#64748b">88</text>
<text x="158" y="119.16666666666667" text-anchor="end" font-family="Segoe UI, Arial" font-size="14" fill="#0f172a">Cloud Compiler</text>
<rect x="170" y="90.0" width="34.09090909090909" height="48.333333333333336" rx="8" fill="#0f766e"/>
<text x="214.0909090909091" y="119.16666666666667" font-family="Segoe UI, Arial" font-size="13" fill="#1e293b">4.0</text>
<text x="158" y="185.5" text-anchor="end" font-family="Segoe UI, Arial" font-size="14" fill="#0f172a">Programiz</text>
<rect x="170" y="156.33333333333334" width="144.88636363636363" height="48.333333333333336" rx="8" fill="#0f766e"/>
<text x="324.8863636363636" y="185.5" font-family="Segoe UI, Arial" font-size="13" fill="#1e293b">17.0</text>
<text x="158" y="251.83333333333334" text-anchor="end" font-family="Segoe UI, Arial" font-size="14" fill="#0f172a">OnlineGDB</text>
<rect x="170" y="222.66666666666669" width="383.52272727272725" height="48.333333333333336" rx="8" fill="#0f766e"/>
<text x="563.5227272727273" y="251.83333333333334" font-family="Segoe UI, Arial" font-size="13" fill="#1e293b">45.0</text>
<text x="158" y="318.1666666666667" text-anchor="end" font-family="Segoe UI, Arial" font-size="14" fill="#0f172a">JDoodle</text>
<rect x="170" y="289.0" width="750.0" height="48.333333333333336" rx="8" fill="#0f766e"/>
<text x="930.0" y="318.1666666666667" font-family="Segoe UI, Arial" font-size="13" fill="#1e293b">88.0</text>
<text x="158" y="384.50000000000006" text-anchor="end" font-family="Segoe UI, Arial" font-size="14" fill="#0f172a">OneCompiler</text>
<rect x="170" y="355.33333333333337" width="511.3636363636364" height="48.333333333333336" rx="8" fill="#0f766e"/>
<text x="691.3636363636364" y="384.50000000000006" font-family="Segoe UI, Arial" font-size="13" fill="#1e293b">60.0</text>
<text x="158" y="450.8333333333334" text-anchor="end" font-family="Segoe UI, Arial" font-size="14" fill="#0f172a">Ideone</text>
<rect x="170" y="421.66666666666674" width="511.3636363636364" height="48.333333333333336" rx="8" fill="#0f766e"/>
<text x="691.3636363636364" y="450.8333333333334" font-family="Segoe UI, Arial" font-size="13" fill="#1e293b">60.0</text>
</svg>